<?xml version="1.0" encoding="utf-8"?>
<!-- Generator: Adobe Illustrator 24.3.0, SVG Export Plug-In . SVG Version: 6.00 Build 0)  -->
<svg version="1.1" id="Capa_1" xmlns="http://www.w3.org/2000/svg" xmlns:xlink="http://www.w3.org/1999/xlink" x="0px" y="0px"
	 viewBox="0 0 113.4 113.4" style="enable-background:new 0 0 113.4 113.4;" xml:space="preserve">
<style type="text/css">
	.st0{fill:#FFD4D4;}
	.st1{fill:#6A578D;}
</style>
<circle class="st0" cx="56.7" cy="56.7" r="56.5"/>
<path class="st1" d="M76.6,53.5L57.7,36.7c-0.8-0.6-1.9-0.6-2.7,0L36,53.5c-0.8,0.8-1.1,2.1-0.2,3c0.8,0.8,2.1,1.1,2.9,0.2l0.6-0.8
	v20.2c0,1.3,0.8,2.1,2.1,2.1h29.5c1.3,0,2.1-0.8,2.1-2.1V55.9l0.6,0.6c0.8,0.8,2.1,0.6,2.9-0.2C77.5,55.6,77.5,54.2,76.6,53.5z
	 M56.2,55c3.2,0,5.7,2.5,5.7,5.7c0,3.2-2.5,5.7-5.7,5.7c-3.2,0-5.7-2.5-5.7-5.7C50.5,57.5,53,55,56.2,55z M45.7,74
	c0-0.2,0-0.2,0.2-0.4c4.6-5.7,13-6.7,18.7-2.1c0.8,0.6,1.5,1.3,2.1,2.1c0,0,0,0.2,0.2,0.4H45.7z"/>
</svg>
