<?xml version="1.0" encoding="utf-8"?>
<!-- Generator: Adobe Illustrator 24.3.0, SVG Export Plug-In . SVG Version: 6.00 Build 0)  -->
<svg version="1.1" id="Capa_1" xmlns="http://www.w3.org/2000/svg" xmlns:xlink="http://www.w3.org/1999/xlink" x="0px" y="0px"
	 viewBox="0 0 45.4 45.4" style="enable-background:new 0 0 45.4 45.4;" xml:space="preserve">
<style type="text/css">
	.st0{fill:#6A578D;}
</style>
<path class="st0" d="M41.9,0.8H3.2C1.9,0.8,1,1.6,1,2.9v38.7c0,1.3,0.9,2.2,2.2,2.2h38.7c1.3,0,2.2-0.9,2.2-2.2V2.9
	C44,1.6,43.1,0.8,41.9,0.8z M18.2,39.5v-8.6h8.6v8.6H18.2z M18.2,26.6V18h8.6v8.6H18.2z M5.3,18h8.6v8.6H5.3V18z M18.2,13.7V5.1h8.6
	v8.6H18.2z M31.1,18h8.6v8.6h-8.6V18z M39.7,13.7h-8.6V5.1h8.6V13.7z M13.9,5.1v8.6H5.3V5.1H13.9z M5.3,30.9h8.6v8.6H5.3V30.9z
	 M31.1,39.5v-8.6h8.6v8.6H31.1z"/>
</svg>
