<?xml version="1.0" encoding="utf-8"?>
<!-- Generator: Adobe Illustrator 24.3.0, SVG Export Plug-In . SVG Version: 6.00 Build 0)  -->
<svg version="1.1" id="Capa_1" xmlns="http://www.w3.org/2000/svg" xmlns:xlink="http://www.w3.org/1999/xlink" x="0px" y="0px"
	 viewBox="0 0 1655.4 1097" style="enable-background:new 0 0 1655.4 1097;" xml:space="preserve">
<style type="text/css">
	.st0{fill:#FFBFBF;}
	.st1{fill:#FFD5D5;}
	.st2{fill:#C7F6FC;}
	.st3{fill:#FFFFFF;}
	.st4{fill:#FFE2E2;}
	.st5{fill:#FFCACA;}
	.st6{fill:#FEDADA;}
	.st7{fill:#E6D8B8;}
	.st8{fill-rule:evenodd;clip-rule:evenodd;fill:#6A578D;}
	.st9{fill-rule:evenodd;clip-rule:evenodd;fill:#C7F6FC;}
	.st10{fill:#6A578D;}
	.st11{fill:#FFF1CC;}
	.st12{fill:none;stroke:#6A578D;stroke-width:20;}
	.st13{fill:none;stroke:#6A578D;stroke-width:7;}
	.st14{fill-rule:evenodd;clip-rule:evenodd;fill:#FFF1CC;}
	.st15{fill-rule:evenodd;clip-rule:evenodd;fill:#E6D8B8;}
	.st16{fill:none;stroke:#FFF1CC;stroke-width:15;}
	.st17{fill:#807866;}
	.st18{fill:#FFFFFF;fill-opacity:0.54;}
</style>
<path class="st0" d="M556.4,103l444.3-23.7c20.3-1.1,40.6-0.5,60.7,1.8l281.5,31.8c18.2,2,36.5,1.3,54.5-2.2l159.1-30.9
	c6.8-1.3,13.9,0.7,19,5.5l40.1,37.6c14.2,13.3,37.1,9.9,46.8-7v978.7h-73.8l-988.2-433c-3,1-5.9,2.3-8.6,3.9l-27.9,16.1l-18.5,10
	l14.3-39.2c13.5-36.9-4.9-77.8-41.4-92.4l-7.7-3.1c-57.9-23-58.3-104.8-0.7-128.4c46.9-19.3,57.9-80.8,20.6-115.1l-37.4-34.3
	C426.9,218.3,466.6,107.8,556.4,103z"/>
<path class="st1" d="M1088.8,290l137,5.8c42.1,1.8,82.7-15.5,110.5-47.1c16.7-19,42.6-27.2,67.2-21.3l164.8,39.3
	c8.3,2,16.7,3,25.2,3h50.3c6.3,0,12.5,1,18.5,3v393h-71l-829,36l-9.8-5c-27.4-14-47.1-39.4-53.8-69.4c-1.3-5.8-2.1-11.6-2.3-17.5
	l-7.9-168.3c-1.8-37.8,26.8-70.2,64.5-73.1l244.2-18.8h20.8c17.3,0,32-12.7,34.6-29.8C1055.4,302.1,1071,289.2,1088.8,290z"/>
<path class="st2" d="M742.1,540.4l304-46.2c24.7-3.7,49.6-5,74.5-3.6l273.8,14.5l105.9,14.5c17.8,2.4,33.8,12.5,43.6,27.5
	c7,10.6,13,21.9,17.9,33.6l87.5,206.9l13,139h-67.7l-1351.3-17l34-32l101-76l97-71l80-66.5l1-2.5h5.5h7h8h8h15.5h31l40.7-24.4
	c15.8-9.5,25.5-26.5,25.5-45C697.6,566.4,716.5,544.3,742.1,540.4z"/>
<path class="st3" d="M1274.3,459.2l-14.8-28.4c-12.6-24.2-14.8-52.5-6-78.4c5.8-16.9,4.6-35.4-3.2-51.5
	c-14.3-29.3-17.8-62.8-9.8-94.4l4.4-17.5c4.8-19.1,17.2-35.3,34.4-44.9l43-24.1c-5.2-41.9-33.2-77.4-72.6-92.2l-44.2-16.6l293,41
	L1359,125.7c-4.5,2.4-8.6,5.4-12.1,9l-50.4,51c-9.6,9.7-11.2,24.7-3.8,36.2c1.3,2.1,1.9,4.6,1.6,7.1l-7,60.2
	c-0.6,4.9,0.9,9.7,4,13.5c10.7,12.7,12.5,30.7,4.7,45.3l-19.8,37.1c-2,3.7-3,7.9-2.9,12.1L1274.3,459.2z"/>
<path class="st3" d="M784.6,211.8c7.2,1.2,11.6,8.7,9.1,15.6c-0.8,2.3-3,3.8-5.4,3.7l-334-4.8v-60.6l58.6-3.8
	c16.9-1.1,33.6,4.5,46.5,15.5l1.6,1.4c10.8,9.3,24,15.3,38.1,17.4l21,3.2c8.4,1.3,17,1.5,25.4,0.8l31.2-2.6
	c10.7-0.9,21.4-0.4,31.9,1.4L784.6,211.8z"/>
<path class="st3" d="M1323.4,145.6l-148.1,15.2l-126.1,12.9c-11.8,1.2-22-8-22-19.9v-11.3c0-15,12.2-27.2,27.2-27.2h0.8
	c6.1,0,12.2-1,18-2.8c17.6-5.7,36.9-3.6,52.9,5.6l24.4,14.1c11.1,6.4,23.5,10.5,36.3,11.9l41.1,4.4L1323.4,145.6z"/>
<path class="st3" d="M1015.4,287.6l-274.9,28.2c-11.4,1.2-21.3-7.8-21.3-19.2c0-18.1,18.9-29.9,35.1-21.9l1.5,0.8
	c12.2,6,25.6,9.2,39.2,9.4L1015.4,287.6z"/>
<path class="st3" d="M620.8,488.3c13.6,6.1,10.4,26.4-4.5,27.9L374.1,541v-60.6l58.4-23.2c19.6-7.8,41.9-2.1,55.4,14.1
	c17.5,21,46,29.2,71.9,20.5l17.3-5.8C591.4,481.3,607,482.1,620.8,488.3z"/>
<path class="st4" d="M841.1,504.6h296.3h308l107,6.7c32.5,3.1,65.3,3.5,97.8,1l13.2-1v273.3l-41-1.4l-485-121.4l-540-0.2v-53.7
	c0-1.6,0.4-3.2,1.2-4.7l17.9-33.6c0.6-1.2,1.5-2.2,2.5-3.1l35.4-28.8H711c8.9,0,17.8-0.8,26.6-2.5l37.3-7
	c9.6-1.8,18.7-5.6,26.7-11.2C813.2,508.9,826.9,504.6,841.1,504.6z"/>
<path class="st4" d="M834,69.6l51,287l-31,23h31l35.6,155H747.4l42.6-231h33l-33-34L834,69.6z"/>
<path class="st1" d="M1035,48.6l51,287l-31,23h31l35.6,155H948.4l42.6-231h33l-33-34L1035,48.6z"/>
<path class="st0" d="M1110.4,128.6l38.3,237.6l-23.3,19h23.3l26.7,128.3h-130l32-191.3h24.8l-24.8-28.2L1110.4,128.6z"/>
<path class="st4" d="M1191.9,128.6l40.3,237.6l-24.5,19h24.5l28.2,128.3h-137l33.7-191.3h26.1l-26.1-28.2L1191.9,128.6z"/>
<path class="st4" d="M1380,28.6l51,287l-31,23h31l35.6,155h-173.2l42.6-231h33l-33-34L1380,28.6z"/>
<path class="st4" d="M1604.9,114.1l58.5,164v138l-39.6,28l39.6,7v166h-146.5l46.3-253.9h31.2l-31.2-36.2L1604.9,114.1z"/>
<path class="st5" d="M761.7,217.6l50.6,354.3l-30.8,28.4h30.8l35.4,191.3h-172L718,506.5h32.8l-32.8-42L761.7,217.6z"/>
<path class="st5" d="M1517.4,207.6l50.7,354.3l-30.8,28.4h30.8l35.3,191.3h-172l42.3-285.1h32.8l-32.8-42L1517.4,207.6z"/>
<path class="st6" d="M948.4,97.6l54.8,287l-33.3,23h33.3l38.2,155h-186l45.8-231h35.4l-35.4-34L948.4,97.6z"/>
<path class="st1" d="M679.4,377.6l40,309l-21.1,21l21.1,8v165h-128l46.3-253.9H669l-31.2-36.2L679.4,377.6z"/>
<path class="st7" d="M1026.4,565.6h457.5l1.5,225h-459V565.6z"/>
<path class="st8" d="M1373.4,468.6h-461v97.5H1260l-0.6,0.5l224.5-0.5L1373.4,468.6z"/>
<path class="st7" d="M912.4,567.1l112.5-1.5l-112.5-97V567.1z"/>
<path class="st8" d="M1541.4,618.6h-461v97.5H1428l-0.6,0.5l224.5-0.5L1541.4,618.6z"/>
<path class="st8" d="M1025.3,566.1l-112.9-97.5L799,566.1h-0.6v0.5v223.5h228v-224H1025.3z"/>
<g>
	<path class="st9" d="M1026.3,587.1l-95-97.5l-95.4,97.5h-0.5v0.5v223.5h191.8v-224H1026.3z"/>
</g>
<path class="st7" d="M1080.4,717.1l112.5-1l-112.5-97.5V717.1z"/>
<path class="st7" d="M1080.4,790.1V618.6l112.5,97.5h459l-0.5,74h-169.5H1080.4z"/>
<path class="st8" d="M1541.4,618.6h-461v97.5H1428l-0.6,0.5l224.5-0.5L1541.4,618.6z"/>
<path class="st7" d="M1080.4,790.1V618.6l112.5,97.5h459l-0.5,74h-169.5h-289H1080.4z"/>
<path class="st10" d="M1192.9,716.1l-112.5-97.5v172h112.5V716.1z"/>
<path class="st2" d="M1178.9,733.6l-90.5-84.5v141.5h90.5V733.6z"/>
<path class="st11" d="M1080.1,566.8l-53-65.5h110L1080.1,566.8z"/>
<path class="st10" d="M1080.1,501.3h215v66h-215V501.3z"/>
<path class="st2" d="M1094.1,521.3h173v46h-173V521.3z"/>
<path class="st3" d="M835.4,637.1l133-102.5l24,21.5l-157,123.5V637.1z"/>
<path class="st3" d="M835.4,764.6l175-165.4l5.1,5.4L835.4,774.1V764.6z"/>
<path class="st3" d="M844.8,790.1l176.9-167.7l3.3,3.2L844.9,795.1L844.8,790.1z"/>
<path class="st3" d="M1081.1,563.3l53-41.9h21.5l-61,45.9L1081.1,563.3z"/>
<path class="st3" d="M1180.6,567.5l54-46h6l-50.8,45.8L1180.6,567.5z"/>
<path class="st3" d="M1208.7,567.3l54.3-46h6.5l-51.8,46H1208.7z"/>
<path class="st3" d="M1088.4,734.1l45-43l2.5,2l-47.5,46V734.1z"/>
<path class="st3" d="M1086.6,760.9l66.4-61.8l7.5-1.4l-74.5,68.7L1086.6,760.9z"/>
<path class="st12" d="M834.4,606.6h178.5"/>
<path class="st13" d="M904.6,510.6v279.5"/>
<path class="st13" d="M1160.9,494.6v73"/>
<path class="st13" d="M956.9,510.6v279.5"/>
<path class="st13" d="M1213.1,494.6v73"/>
<path class="st14" d="M1025.3,566.1l-112.9-97.5L799,566.1h-0.6v224h228v-224H1025.3z M1012.4,573.5l-100-86.4l-100,85.9v217.1h200
	V573.5z"/>
<path class="st14" d="M1080.4,618.6v172h112.5v-74.5L1080.4,618.6z M1080.4,641.6v149h98.5v-57L1080.4,641.6z"/>
<path class="st15" d="M1281.1,515.3h-187v52h187V515.3z M1080.1,501.3v66h215v-66H1080.1z"/>
<path class="st10" d="M1267.1,521.3h2.5l-2.5,2.5V521.3z"/>
<path class="st10" d="M1082.3,764.2l6.1-5.1v10L1082.3,764.2z"/>
<path class="st16" d="M835.4,594.6h179"/>
<path class="st7" d="M907.4,587.1h54v15h-54V587.1z"/>
<path class="st10" d="M953.4,587.1h59v15.5h-59V587.1z"/>
<rect x="1248.4" y="424.6" class="st10" width="38" height="44"/>
<ellipse class="st17" cx="777.4" cy="777.1" rx="53" ry="53.5"/>
<ellipse class="st17" cx="1230.4" cy="787.6" rx="39" ry="43"/>
<ellipse class="st17" cx="714.4" cy="799.6" rx="39" ry="43"/>
<ellipse class="st17" cx="1193.4" cy="815.6" rx="39" ry="43"/>
<path class="st17" d="M872.4,799.6c0,23.7-17.5,43-39,43s-39-19.3-39-43s17.5-43,39-43S872.4,775.9,872.4,799.6z"/>
<path class="st17" d="M483.6,828.4c16.1-24.2,43.3-38.7,72.4-38.7h1106.4v137l-1239-7.9L483.6,828.4z"/>
<path class="st10" d="M204.5,954.8c12-30.7,41.5-50.9,74.5-50.9h1383.9l-0.5,198.5l-1645-1.5l69.1-27.4
	C140.6,1052.1,183.4,1009.1,204.5,954.8z"/>
<path class="st3" d="M606.7,749.3l-71.8,20.8l-69.1-0.7l-130.4,18.2l52.5-65l45,24.9l64.1,11.7L606.7,749.3z"/>
<path class="st3" d="M452.8,870.6l-83.7,21.5h-80.3l-151.7,19.5l61.7-65.5l52,24.5l74.3,11.1L452.8,870.6z"/>
<rect class="st18" width="1655.4" height="1102.4"/>
</svg>
