<?xml version="1.0" encoding="utf-8"?>
<!-- Generator: Adobe Illustrator 24.3.0, SVG Export Plug-In . SVG Version: 6.00 Build 0)  -->
<svg version="1.1" id="Capa_1" xmlns="http://www.w3.org/2000/svg" xmlns:xlink="http://www.w3.org/1999/xlink" x="0px" y="0px"
	 viewBox="0 0 45.4 45.4" style="enable-background:new 0 0 45.4 45.4;" xml:space="preserve">
<style type="text/css">
	.st0{fill:#6A578D;}
</style>
<path class="st0" d="M22.5,19.7c0.9,0,1.8-0.3,2.5-0.7c0.7-0.5,1.3-1.1,1.7-1.9c0.3-0.8,0.4-1.7,0.3-2.5c-0.2-0.8-0.6-1.6-1.2-2.2
	c-0.6-0.6-1.4-1-2.3-1.2c-0.9-0.2-1.8-0.1-2.6,0.2c-0.8,0.3-1.5,0.9-2,1.6c-0.5,0.7-0.8,1.5-0.8,2.4c0,1.1,0.5,2.2,1.3,3
	C20.2,19.2,21.3,19.7,22.5,19.7z M20.9,34.5c0.2,0.2,0.5,0.4,0.7,0.5c0.3,0.1,0.6,0.2,0.9,0.2s0.6-0.1,0.9-0.2
	c0.3-0.1,0.5-0.3,0.7-0.5l9.2-8.8c2.1-2,3.6-4.6,4.2-7.5c0.6-2.8,0.3-5.8-0.9-8.4c-1.2-2.7-3.1-5-5.6-6.6c-2.5-1.6-5.5-2.5-8.5-2.5
	s-6,0.9-8.5,2.5c-2.5,1.6-4.5,3.9-5.6,6.6c-1.2,2.7-1.5,5.6-0.9,8.4c0.6,2.8,2,5.4,4.2,7.5L20.9,34.5z M11.8,14.4
	c0.2-1.5,0.7-3,1.5-4.3c0.8-1.3,2-2.4,3.3-3.3C18.3,5.6,20.4,5,22.5,5s4.2,0.6,5.9,1.7c1.3,0.8,2.5,2,3.3,3.3
	c0.8,1.3,1.3,2.8,1.5,4.3s0,3.1-0.6,4.5c-0.5,1.4-1.4,2.8-2.5,3.8L22.5,30l-7.6-7.3c-1.1-1.1-2-2.4-2.5-3.8
	C11.8,17.4,11.6,15.9,11.8,14.4z M38.3,39.5H6.8c-0.6,0-1.2,0.2-1.6,0.6c-0.4,0.4-0.7,1-0.7,1.5c0,0.6,0.2,1.1,0.7,1.5
	c0.4,0.4,1,0.6,1.6,0.6h31.5c0.6,0,1.2-0.2,1.6-0.6c0.4-0.4,0.7-1,0.7-1.5c0-0.6-0.2-1.1-0.7-1.5C39.4,39.7,38.9,39.5,38.3,39.5z"/>
</svg>
