<?xml version="1.0" encoding="utf-8"?>
<!-- Generator: Adobe Illustrator 24.3.0, SVG Export Plug-In . SVG Version: 6.00 Build 0)  -->
<svg version="1.1" id="Capa_1" xmlns="http://www.w3.org/2000/svg" xmlns:xlink="http://www.w3.org/1999/xlink" x="0px" y="0px"
	 viewBox="0 0 28.3 34" style="enable-background:new 0 0 28.3 34;" xml:space="preserve">
<style type="text/css">
	.st0{fill:#B79FCD;}
</style>
<path class="st0" d="M14.2,1.3c-3.6,0-7,1.3-9.5,3.7s-4,5.7-4,9.1c0,8.6,11.9,18.4,12.4,18.8c0.3,0.2,0.7,0.4,1.1,0.4
	s0.8-0.1,1.1-0.4c0.6-0.4,12.4-10.2,12.4-18.8c0-3.4-1.4-6.7-4-9.1C21.2,2.7,17.8,1.3,14.2,1.3z M14.2,29.6C10.6,26.4,4,19.5,4,14.1
	c0-2.5,1.1-5,3-6.8c1.9-1.8,4.5-2.8,7.2-2.8s5.3,1,7.2,2.8c1.9,1.8,3,4.2,3,6.8C24.3,19.5,17.8,26.4,14.2,29.6z M14.2,7.7
	c-1.3,0-2.6,0.4-3.8,1.1c-1.1,0.7-2,1.7-2.5,2.9c-0.5,1.2-0.6,2.5-0.4,3.7c0.3,1.2,0.9,2.4,1.8,3.3c0.9,0.9,2.1,1.5,3.5,1.8
	c1.3,0.2,2.7,0.1,3.9-0.4c1.2-0.5,2.3-1.3,3-2.4c0.7-1.1,1.1-2.3,1.1-3.6c0-1.7-0.7-3.3-2-4.5C17.7,8.4,16,7.7,14.2,7.7z M14.2,17.3
	c-0.7,0-1.3-0.2-1.9-0.5c-0.6-0.4-1-0.9-1.2-1.4c-0.3-0.6-0.3-1.2-0.2-1.8c0.1-0.6,0.5-1.2,0.9-1.6c0.5-0.4,1.1-0.8,1.7-0.9
	c0.7-0.1,1.3-0.1,1.9,0.2c0.6,0.2,1.1,0.7,1.5,1.2c0.4,0.5,0.6,1.1,0.6,1.8c0,0.8-0.4,1.7-1,2.3C15.9,17,15.1,17.3,14.2,17.3z"/>
</svg>
