<?xml version="1.0" encoding="utf-8"?>
<!-- Generator: Adobe Illustrator 24.3.0, SVG Export Plug-In . SVG Version: 6.00 Build 0)  -->
<svg version="1.1" id="Capa_1" xmlns="http://www.w3.org/2000/svg" xmlns:xlink="http://www.w3.org/1999/xlink" x="0px" y="0px"
	 viewBox="0 0 113.4 113.4" style="enable-background:new 0 0 113.4 113.4;" xml:space="preserve">
<style type="text/css">
	.st0{fill:#DCC6E1;fill-opacity:0.71;}
	.st1{fill:#6A578D;}
</style>
<circle class="st0" cx="56.7" cy="56.7" r="56.5"/>
<path class="st1" d="M44.7,62.9h-7.6c-1.1,0-1.9,0.8-1.9,1.9v11.5c0,1.1,0.8,1.9,1.9,1.9h7.6c1.1,0,1.9-0.8,1.9-1.9V64.8
	C46.6,63.7,45.9,62.9,44.7,62.9z M60,51.5h-7.6c-1.1,0-1.9,0.8-1.9,1.9v22.9c0,1.1,0.8,1.9,1.9,1.9H60c1.1,0,1.9-0.8,1.9-1.9V53.4
	C61.9,52.2,61.2,51.5,60,51.5z M75.3,36.2h-7.6c-1.1,0-1.9,0.8-1.9,1.9v38.2c0,1.1,0.8,1.9,1.9,1.9h7.6c1.1,0,1.9-0.8,1.9-1.9V38.1
	C77.2,37,76.4,36.2,75.3,36.2z"/>
</svg>
