<?xml version="1.0" encoding="utf-8"?>
<!-- Generator: Adobe Illustrator 24.3.0, SVG Export Plug-In . SVG Version: 6.00 Build 0)  -->
<svg version="1.1" id="Capa_1" xmlns="http://www.w3.org/2000/svg" xmlns:xlink="http://www.w3.org/1999/xlink" x="0px" y="0px"
	 viewBox="0 0 113.4 113.4" style="enable-background:new 0 0 113.4 113.4;" xml:space="preserve">
<style type="text/css">
	.st0{fill:#FFD5D5;}
	.st1{fill:#6A578D;}
</style>
<circle class="st0" cx="56.7" cy="56.7" r="56.5"/>
<path class="st1" d="M54.3,51.5h7.6c0.5,0,1-0.2,1.3-0.6c0.4-0.4,0.6-0.8,0.6-1.3c0-0.5-0.2-1-0.6-1.3c-0.4-0.4-0.8-0.6-1.3-0.6
	h-3.8v-1.9c0-0.5-0.2-1-0.6-1.4c-0.4-0.4-0.8-0.6-1.3-0.6s-1,0.2-1.3,0.6c-0.4,0.4-0.6,0.8-0.6,1.4v1.9c-1.5,0-3,0.6-4,1.7
	c-1.1,1.1-1.7,2.5-1.7,4s0.6,3,1.7,4c1.1,1.1,2.5,1.7,4,1.7h3.8c0.5,0,1,0.2,1.3,0.6C59.8,60,60,60.5,60,61c0,0.5-0.2,1-0.6,1.3
	c-0.4,0.4-0.8,0.6-1.3,0.6h-7.6c-0.5,0-1,0.2-1.3,0.6c-0.4,0.4-0.6,0.8-0.6,1.4c0,0.5,0.2,1,0.6,1.3c0.4,0.4,0.8,0.6,1.3,0.6h3.8
	v1.9c0,0.5,0.2,1,0.6,1.3c0.4,0.4,0.8,0.6,1.3,0.6s1-0.2,1.3-0.6c0.4-0.4,0.6-0.8,0.6-1.3v-1.9c1.5,0,3-0.6,4-1.7
	c1.1-1.1,1.7-2.5,1.7-4c0-1.5-0.6-3-1.7-4c-1.1-1.1-2.5-1.7-4-1.7h-3.8c-0.5,0-1-0.2-1.3-0.6c-0.4-0.4-0.6-0.8-0.6-1.3
	c0-0.5,0.2-1,0.6-1.3C53.3,51.7,53.8,51.5,54.3,51.5z M56.2,36.2c-4.2,0-8.2,1.2-11.7,3.5c-3.5,2.3-6.1,5.6-7.7,9.4
	c-1.6,3.8-2,8.1-1.2,12.1s2.8,7.8,5.7,10.8C44.3,75,48,77,52.1,77.8c4.1,0.8,8.3,0.4,12.1-1.2c3.8-1.6,7.1-4.3,9.4-7.7
	c2.3-3.5,3.5-7.5,3.5-11.7c0-5.6-2.2-10.9-6.2-14.8C67.1,38.4,61.8,36.2,56.2,36.2z M56.2,74.4c-3.4,0-6.7-1-9.5-2.9
	c-2.8-1.9-5-4.6-6.3-7.7c-1.3-3.1-1.6-6.6-1-9.9c0.7-3.3,2.3-6.4,4.7-8.8s5.5-4,8.8-4.7c3.3-0.7,6.8-0.3,9.9,1
	c3.1,1.3,5.8,3.5,7.7,6.3c1.9,2.8,2.9,6.1,2.9,9.5c0,4.6-1.8,8.9-5,12.1S60.8,74.4,56.2,74.4z"/>
</svg>
